# xmcd
#
# Track frame offsets:
#	150
#	14297
#	28299
#	38123
#	51512
#	64976
#	83348
#	97712
#	112274
#	126000
#
# Disc length: 1849 seconds
#
# Revision: 1
# Processed by: cddbd v1.5.2PL0 Copyright (c) Steve Scherf et al.
# Submitted via: audiograbber 1.83.01
#
DISCID=7f07370a
DTITLE=Marion Randell - Tell My Heart
DYEAR=1900
DGENRE=Country
TTITLE0=Face Saving, Heart Breaking Lies
TTITLE1=Mister Man In The Moon
TTITLE2=Cowboy Cute, Cowgirl Crazy
TTITLE3=Tell My Heart
TTITLE4=Blue Kentucky Teardrops
TTITLE5=Great Day In The Mornin'
TTITLE6=Memory Of Love
TTITLE7=You Can't Break A Heart
TTITLE8=Wouldn't It Be Nice
TTITLE9=If It Works For You
EXTD=
EXTT0=
EXTT1=
EXTT2=
EXTT3=
EXTT4=
EXTT5=
EXTT6=
EXTT7=
EXTT8=
EXTT9=
PLAYORDER=
